<svg xmlns="http://www.w3.org/2000/svg" viewBox="0 0 180.81 71.06"><defs><style>.cls-1{fill:#00988f;}.cls-1,.cls-2{fill-rule:evenodd;}.cls-2{fill:#1d1d1b;}</style></defs><title>logo_bnp</title><g id="Laag_2" data-name="Laag 2"><g id="Laag_1-2" data-name="Laag 1"><path class="cls-1" d="M57.25,14.19c-5.79,3.38-7.57,3.65-13.8,7.41a66.69,66.69,0,0,0,7.17-9A139.52,139.52,0,0,0,30.43,15c5.23-2.78,15.58-5.89,21-6.62C50.2,6.62,40,1.05,37.4,0c8.11.63,18,3.64,22.82,6.6C62.16,6,64.1,6,67.6,5.66c-.89,1.54-.91,2.44-4.37,4.71,1,2.56-1.32,16.63-3.2,20.38-.08-5.9-.61-13.34-2.78-16.56Z"/><path class="cls-1" d="M23.66,17.85h0a18.5,18.5,0,0,0-2.55,5A43.11,43.11,0,0,1,36.5,28.4c-7.5-1.32-11.41-1.16-14.2-.92a10.88,10.88,0,0,0-3.34.61c-2,4.37-3.2,12-3.2,12-1.37-3.27-3.34-9.83-3.34-9.83C8.66,32.26,0,40.4,0,40.4c4.76-9.54,9.58-13.91,9.59-13.91-1.67-1.66-6-2.49-9.2-2.63a35.24,35.24,0,0,1,9.16-1.62,44,44,0,0,1,5.23.1,26.57,26.57,0,0,1,8.88-4.49Z"/><path class="cls-1" d="M32.7,58.76c-1.51,2-2.79,3.65-4.47,5.52a28.74,28.74,0,0,1-8,1.09,18.86,18.86,0,0,0,5.16,1.79,34.31,34.31,0,0,1-5,3.9A38.31,38.31,0,0,0,30,67.44a20.52,20.52,0,0,0,3.9-.23c-.24-.89-.43-1.53-.65-2.67a63,63,0,0,0,6.88-6.22A47.24,47.24,0,0,1,33,62.53c-.13-1.28-.21-2.34-.28-3.77Z"/><path class="cls-2" d="M28.93,40.25c.12,1.25.19,4.36.19,5.5s0,4.55-.21,6.06l0,.12h6.85c3.35,0,6.92-.86,6.92-3.24,0-1.5-1.35-2.6-3.89-3.21,1.87-.4,3.13-1.43,3.13-2.62,0-1.95-2.8-2.69-5.42-2.73H28.92v.12Zm5.3,1.2c2.86,0,3.92.48,3.92,1.73a1.18,1.18,0,0,1-.38.87,4.25,4.25,0,0,1-3,.74h-.06l-.79,1.66h.8a5.21,5.21,0,0,1,3.65,1,1.45,1.45,0,0,1,.48,1.06c0,1.32-1.43,2-4.25,2-.47,0-1.24,0-1.73,0-.1-1.72-.11-4.08-.11-4.77s.05-2.66.12-4.22a8.49,8.49,0,0,1,1.35-.08Z"/><path class="cls-2" d="M58.46,40.13H55.14l.14,3c.06,1.48.12,3,.25,4.45a9.75,9.75,0,0,0-1.41-1.87s-3.49-4.31-4.69-5.52l0,0H45.52v.12c.11,1.24.19,4.35.19,5.5s0,4.55-.21,6.06l0,.12h3.44v-.11c-.2-2.9-.2-5.8-.2-8.6h0a3.93,3.93,0,0,0,.82,1.28c.06.08,6,7,6.28,7.4l0,0h2.76v-.12c-.21-1.52-.22-5-.22-6.06s.08-4.27.19-5.5l0-.12Z"/><path class="cls-2" d="M62.47,40.24c.11,1.26.19,4.36.19,5.51s0,4.54-.22,6v.13h4.1V51.8a46,46,0,0,1-.21-4.75l.75,0,.57,0c5.41,0,8-1.17,8-3.56,0-2.73-3.68-3.36-6.77-3.42H62.46v.11Zm5,1.31c1.92,0,3.28.29,3.93.93a1.46,1.46,0,0,1,.43,1.07c0,1.71-2.38,2.07-4.39,2.07l-.81,0-.32,0c0-.39,0-.9,0-1.49,0-.75,0-1.62,0-2.44.25,0,.69-.07,1.13-.08Z"/><path class="cls-2" d="M83.51,40.24c.12,1.26.19,4.36.19,5.51s0,4.54-.21,6l0,.13h4.11l0-.13c-.14-1.08-.2-3.15-.21-4.75l.75,0,.58,0c5.4,0,8-1.17,8-3.56,0-2.73-3.68-3.36-6.77-3.42H83.5v.11Zm5,1.31c1.92,0,3.27.29,3.92.93a1.46,1.46,0,0,1,.44,1.07c0,1.71-2.39,2.07-4.4,2.07l-.81,0-.32,0c0-.39,0-.91,0-1.49,0-.76,0-1.62.05-2.44.25,0,.7-.07,1.14-.08Z"/><path class="cls-2" d="M102.21,40.14h-.06l0,.06c-.77,1.68-5.68,10.26-6.44,11.57l-.1.17H99.1l0-.08c.3-.8.7-1.71,1.16-2.7l2.91,0,2.39,0h.53c.63,1.27,1.1,2.23,1.31,2.71l0,.07h4.07L105,40.14Zm1,3.47c.33.56,1.17,2.14,2.12,4H105l-1.81,0-2.16,0c.76-1.49,1.51-2.84,2.16-4Z"/><path class="cls-2" d="M113.16,40.25c.11,1.24.2,4.35.2,5.5s0,4.54-.23,6v.13h4.1v-.12c-.21-1.52-.22-5-.22-6.06,0-.82,0-2.66.11-4.12.35,0,.8-.07,1.11-.07,1.92,0,3.28.28,3.92.92a1.45,1.45,0,0,1,.45,1.07c0,1.36-1.6,2.05-3.09,2.11a5.83,5.83,0,0,1-.88,0l-.28,0,.19.22c1.43,1.7,3.62,4.66,4.54,6.08l0,0h4.4l-.13-.18c-.15-.19-3-3.57-4.26-5l-.07-.09c2.23-.55,3.33-1.56,3.33-3.11,0-2.73-3.69-3.36-6.78-3.41h-6.44l0,.12Z"/><path class="cls-2" d="M133.32,40.13h-3.93v.11c.11,1.25.19,4.36.19,5.5s0,4.55-.21,6.06l0,.13h4.11l0-.13c-.2-1.51-.22-5-.22-6.06s.08-4.26.2-5.5v-.11Z"/><path class="cls-2" d="M137.16,40.25c.11,1.25.19,4.35.19,5.5s0,4.55-.21,6.06l0,.12H144c3.35,0,6.93-.86,6.93-3.24,0-1.5-1.36-2.6-3.9-3.21,1.86-.4,3.13-1.43,3.13-2.62,0-1.95-2.8-2.69-5.42-2.73h-7.56v.12Zm5.29,1.2h0c2.87,0,3.93.48,3.93,1.73a1.16,1.16,0,0,1-.39.87,4.18,4.18,0,0,1-3,.74h-.07l-.79,1.66h.8a5.16,5.16,0,0,1,3.64,1,1.42,1.42,0,0,1,.49,1.06c0,1.32-1.43,2-4.25,2-.48,0-1.25,0-1.73,0-.1-1.72-.11-4.08-.11-4.77s0-2.66.12-4.22a8.44,8.44,0,0,1,1.34-.08Z"/><path class="cls-2" d="M161.11,40.13h-2.76l0,.06c-.81,1.78-6,10.82-6.44,11.57l-.09.17h3.52l0-.08c.31-.8.7-1.71,1.17-2.7l2.9,0,2.4,0h.53c.63,1.26,1.1,2.23,1.3,2.7l0,.08h4.08l-6.57-11.8Zm-1.69,3.47c.32.56,1.16,2.14,2.11,4h-.3l-1.82,0-2.15,0c.75-1.49,1.51-2.84,2.16-4Z"/><path class="cls-2" d="M168.76,43.19c0,2.07,2.61,2.91,4.91,3.66,1.79.57,3.63,1.17,3.63,2.16a1,1,0,0,1-.29.73,3.82,3.82,0,0,1-2.68.52,15.06,15.06,0,0,1-4.62-1L169,49v2.58l.47.08.29,0a22.18,22.18,0,0,0,4.15.47c4.33,0,6.91-1.36,6.91-3.65,0-2.13-2.67-3-5-3.73-1.73-.56-3.53-1.13-3.53-2,0-.26,0-1.05,2.22-1.05a13.5,13.5,0,0,1,4.17.84l.85.27V40.18l-.84-.12a23.93,23.93,0,0,0-3.67-.34c-3.72,0-6.22,1.39-6.22,3.47Z"/></g></g></svg>