<svg xmlns="http://www.w3.org/2000/svg" viewBox="0 0 240.48 113.79"><defs><style>.cls-1{fill:#00a160;}</style></defs><title>logo_argenta</title><g id="Laag_2" data-name="Laag 2"><g id="Laag_1-2" data-name="Laag 1"><g id="argenta-logo-name"><path id="Fill-1" class="cls-1" d="M59,95.77h3.55c2.12,0,9.81-.09,9.81-7,0-3-2-6.68-7.88-6.68H59ZM70.8,113.11,59.07,96.5H59v16.61h-5.2V77.27h11c5,0,7.6,1.21,9.47,3a11.91,11.91,0,0,1,3.27,8.48c0,9.49-7.88,11-10.19,11l10,13.37Z"/><path id="Fill-2" class="cls-1" d="M106.23,86.28c-1.49-1.65-4.47-4.89-9.71-4.89-7.4,0-13.17,6.39-13.17,13.9A13.63,13.63,0,0,0,96.57,109c1,0,8.85-.09,12.26-8.91H92.24V95.29h22.5a18.29,18.29,0,1,1-36.58,0C78.16,85,86.09,76.6,96.33,76.6a18.2,18.2,0,0,1,16,9.68Z"/><polygon id="Fill-3" class="cls-1" points="116.52 113.11 116.52 77.27 135.7 77.27 135.7 82.07 121.71 82.07 121.71 92.62 135.7 92.62 135.7 97.42 121.71 97.42 121.71 108.31 135.7 108.31 135.7 113.11 116.52 113.11"/><polygon id="Fill-4" class="cls-1" points="162 113.11 144.41 85.41 144.31 85.41 144.31 113.11 139.11 113.11 139.11 77.27 144.79 77.27 162.1 104.54 162.19 104.54 162.19 77.27 167.38 77.27 167.38 113.11 162 113.11"/><polygon id="Fill-5" class="cls-1" points="175.27 113.11 175.27 82.07 168.44 82.07 168.44 77.27 187.29 77.27 187.29 82.07 180.46 82.07 180.46 113.11 175.27 113.11"/><path id="Fill-6" class="cls-1" d="M194.73,97.43V84.19l17,13.17Zm0-20.22H189.1V113.4h5.63V102.48l23.65,0,14.07,10.89h8Z"/><path id="Fill-7" class="cls-1" d="M45.75,97.43l-17-.07,17-13.17Zm0-20.22L0,113.4H8l14.06-10.89,23.66,0V113.4h5.63V77.21Z"/></g><g id="argenta-apple"><polygon id="Fill-8" class="cls-1" points="109.62 20.34 121.48 20.34 95.41 41 95.41 31.61 109.62 20.34"/><polygon id="Fill-9" class="cls-1" points="139.13 66.34 127.28 66.34 153.35 45.68 153.35 55.07 139.13 66.34"/><polygon id="Fill-10" class="cls-1" points="139.13 20.34 145.48 25.37 101.7 60.06 95.41 55.07 95.41 43.5 124.63 20.34 139.13 20.34"/><polygon id="Fill-11" class="cls-1" points="147.05 26.62 153.35 31.61 153.35 43.18 124.12 66.34 109.62 66.34 103.28 61.31 147.05 26.62"/><polygon id="Fill-12" class="cls-1" points="128.47 17.3 143 5.79 170.2 5.79 155.67 17.3 128.47 17.3"/><polygon id="Fill-13" class="cls-1" points="125.32 2.32 128.25 0 128.25 14.98 125.32 17.3 125.32 2.32"/></g></g></g></svg>