<svg xmlns="http://www.w3.org/2000/svg" viewBox="0 0 425.11 91.27"><defs><style>.cls-1{fill:#c30045;}.cls-2{fill:#fff;}.cls-3{fill:#51626f;}</style></defs><title>logo_belfius</title><g id="Laag_2" data-name="Laag 2"><g id="LOGO"><path class="cls-1" d="M0,73.62A16.58,16.58,0,0,0,16.58,90.21H89.14V17.63A16.58,16.58,0,0,0,72.57,1.05h-56A16.58,16.58,0,0,0,0,17.63Z"/><path class="cls-2" d="M20.47,33.18a6.2,6.2,0,0,1,6.34-6.34H62.33a6.35,6.35,0,1,1,0,12.69H26.81A6.21,6.21,0,0,1,20.47,33.18Z"/><path class="cls-2" d="M20.47,58.08a6.2,6.2,0,0,1,6.34-6.35H62.33a6.34,6.34,0,1,1,0,12.68H26.81A6.2,6.2,0,0,1,20.47,58.08Z"/><path class="cls-3" d="M142.88,90.2H120.71A6.27,6.27,0,0,1,114.52,84V7.25a6.26,6.26,0,0,1,6.19-6.18h22.17a24.55,24.55,0,0,1,16.59,42.72A26.14,26.14,0,0,1,142.88,90.2Zm-16-12.37h16a13.81,13.81,0,1,0,0-27.61h-16Zm0-40h16A12.22,12.22,0,0,0,155,25.59V24.08a12.27,12.27,0,0,0-12.15-10.64h-16Z"/><path class="cls-3" d="M201.14,91.27c-13.46,0-24.84-10.89-24.84-23.78V47.77a23.78,23.78,0,0,1,47.56,0v7.46a6.27,6.27,0,0,1-6.19,6.18h-29v6.08c0,6,6,11.4,12.47,11.4a12.78,12.78,0,0,0,9.68-3.74,5.9,5.9,0,0,1,4.93-2.76,6.55,6.55,0,0,1,6.4,6.19,6.06,6.06,0,0,1-1.22,3.58h0A10,10,0,0,1,219.45,84C215.13,88.6,208.45,91.27,201.14,91.27ZM188.67,49h22.81V47.77a11.41,11.41,0,1,0-22.81,0Z"/><path class="cls-3" d="M239.58,90.2A6,6,0,0,1,233.39,84V7.25a6.19,6.19,0,0,1,12.38,0V84A6,6,0,0,1,239.58,90.2Z"/><path class="cls-3" d="M269.82,90.2A6,6,0,0,1,263.63,84V37.43h-4.69a6,6,0,0,1-6.19-6.19,6,6,0,0,1,6.19-6.19h4.69V18c0-10.27,8.26-18,19.2-18,9.5,0,13.75,4.5,13.75,9,0,3.34-2.29,5.87-5.33,5.87a6.62,6.62,0,0,1-3.66-1.1,10.07,10.07,0,0,0-4.76-1.36c-5,0-6.82,3-6.82,5.65v7h13a6,6,0,0,1,6.19,6.19A6,6,0,0,1,289,37.43H276V84A6,6,0,0,1,269.82,90.2Z"/><path class="cls-3" d="M309.16,90.2A6,6,0,0,1,303,84V31.24a6.19,6.19,0,1,1,12.37,0V84A6,6,0,0,1,309.16,90.2Zm0-72.32A6,6,0,0,1,303,11.69V7.25a6.19,6.19,0,0,1,12.37,0v4.44A6,6,0,0,1,309.16,17.88Z"/><path class="cls-3" d="M350.4,91.27a23.8,23.8,0,0,1-23.77-23.78V31.24a6.19,6.19,0,1,1,12.37,0V67.49a11.41,11.41,0,0,0,22.81,0V31.24a6.19,6.19,0,1,1,12.37,0V67.49A23.81,23.81,0,0,1,350.4,91.27Z"/><path class="cls-3" d="M402.29,91.27c-6.47,0-15-3-18.73-8.59A6.37,6.37,0,0,1,382.35,79a6.54,6.54,0,0,1,6.4-6.18,6.18,6.18,0,0,1,4.95,2.69l.2.3c1.82,2,4.87,3.08,8.39,3.08,6.85,0,10.44-3.75,10.44-7.46,0-5.2-5.47-7.34-11.81-9.81-8.09-3.16-18.15-7.08-18.15-19.4C382.77,30.25,393,24,403,24c7.31,0,15,4,18.74,9.77a6.15,6.15,0,0,1,1,3.45,6.39,6.39,0,0,1-6.4,6.19,5.65,5.65,0,0,1-5-2.91c-2.54-2.86-5.13-4.13-8.37-4.13-4.79,0-7.88,2.3-7.88,5.86,0,4,4.92,5.91,10.62,8.15,8.61,3.39,19.34,7.61,19.34,21.06C425.11,84.31,413.35,91.27,402.29,91.27Z"/></g></g></svg>